<?xml version="1.0" encoding="UTF-8"?>
<svg id="_喇뒨쏛_2" data-name="喇뒨쏛 2" xmlns="http://www.w3.org/2000/svg" viewBox="0 0 400 107.07">
  <defs>
    <style>
      .cls-1 {
        fill: #55bdb2;
        stroke-width: 0px;
      }
    </style>
  </defs>
  <g id="_喇뒨쏛_2-2" data-name="喇뒨쏛 2">
    <g>
      <path class="cls-1" d="M163.88.1c-20.72-1.54-38.14,14.5-38.88,34.73h-.03v64.41c0,4.32,3.51,7.83,7.83,7.83h0c4.48,0,8.11-3.63,8.11-8.11v-32.81c5.78,3.91,12.74,6.2,20.23,6.2,21.31,0,38.38-18.52,35.94-40.32C195.17,14.93,181.04,1.37,163.88.1ZM162.13,56.39c-11.56.55-21.15-8.66-21.22-20.09v-.25c.07-11.1,9.11-20.11,20.23-20.11s20.76,9.61,20.21,21.21c-.49,10.28-8.94,18.74-19.22,19.23Z"/>
      <path class="cls-1" d="M315.04,75.2h0c-4.54,0-8.22-3.68-8.22-8.22v-29.85c.01-.23.02-.47.03-.7,1.12-15.89,12.17-28.93,26.83-33.18,5.2-1.51,10.38,2.52,10.38,7.93h0c0,3.65-2.4,6.85-5.89,7.88-8.15,2.4-14.29,9.66-14.92,18.49v29.43c0,4.54-3.68,8.22-8.22,8.22Z"/>
      <path class="cls-1" d="M379.19,9.72h0c0,3.85,3.12,6.97,6.97,6.97h6.82c3.85,0,6.97,3.12,6.97,6.97v2.5c0,3.85-3.12,6.97-6.97,6.97h-6.82c-3.85,0-6.97,3.12-6.97,6.97v.3c.65,9.05,7.08,16.45,15.53,18.66,3.07.8,5.28,3.45,5.28,6.63v2.71c0,4.46-4.14,7.82-8.48,6.81-15.62-3.65-27.59-17.14-28.74-33.73-.01-.2-.02-.4-.02-.59V9.72c-.01-3.85,3.11-6.97,6.96-6.97h2.5c3.85,0,6.97,3.12,6.97,6.97Z"/>
      <path class="cls-1" d="M99.38,4.71c-4.41,0-7.99,3.45-7.99,7.71v31.83c-.24,8.68-8.58,15.55-17.88,13.85-7.18-1.31-12.2-7.67-12.2-14.72l-.02-31.27c0-4.09-3.44-7.4-7.67-7.4h0c-4.39,0-7.94,3.43-7.94,7.66v31.88c-.24,8.68-8.58,15.55-17.88,13.85-7.18-1.31-12.2-7.67-12.2-14.72V12.29c0-4.19-3.52-7.58-7.86-7.58h0C3.47,4.71,0,8.06,0,12.19v30.92c0,14.76,10.91,27.77,26.04,29.98,10.77,1.57,20.77-2.48,27.36-9.55.03-.03.08-.03.12,0,5.62,6.06,13.77,9.88,22.84,9.88,16.54,0,30.28-12.97,30.64-28.91V12.06c0-4.06-3.41-7.35-7.62-7.35h0Z"/>
      <path class="cls-1" d="M221.02,23.43c-1.52,3.97-2.38,8.25-2.38,12.74,0,19.75,16.07,35.82,35.82,35.82,10.2,0,19.4-4.31,25.93-11.18-6.46.43-19.8-4.93-33.75-14.01-12.63-8.22-22.27-17.23-25.63-23.37Z"/>
      <path class="cls-1" d="M287.59,49.76c1.73-4.2,2.7-8.78,2.7-13.59,0-19.75-16.07-35.82-35.82-35.82-9.73,0-18.56,3.91-25.02,10.23-6.89-2.33-11.81-2.69-13.23-.5-1.18,1.82.21,5.12,3.53,9.26.6.75,1.27,1.53,2,2.33,5.66,6.25,14.97,13.94,26.2,21.25,13.1,8.53,25.61,14.46,33.78,16.45.61.15,1.21.28,1.77.39,3.74.69,6.33.38,7.31-1.11,1.15-1.76-.11-4.91-3.21-8.87Z"/>
    </g>
  </g>
</svg>